<svg width="509" height="104" viewBox="0 0 509 104" fill="none" xmlns="http://www.w3.org/2000/svg">
<path d="M176.7 71.75C170.2 71.75 165.125 70.075 161.475 66.725C157.875 63.325 156.075 58.625 156.075 52.625C156.075 46.675 157.85 42 161.4 38.6C165 35.2 169.975 33.5 176.325 33.5C180.225 33.5 183.675 34.125 186.675 35.375C189.725 36.575 192.1 38.3 193.8 40.55C195.5 42.75 196.35 45.275 196.35 48.125C196.35 50.325 195.7 52.025 194.4 53.225C193.15 54.425 191.35 55.025 189 55.025H162.975C162.975 58.525 164.15 61.25 166.5 63.2C168.9 65.1 172.3 66.05 176.7 66.05C179.3 66.05 181.55 65.775 183.45 65.225C185.4 64.675 187.225 63.775 188.925 62.525C190.175 61.675 191.125 61.25 191.775 61.25C192.375 61.25 192.925 61.5 193.425 62C194.125 62.7 194.475 63.425 194.475 64.175C194.475 64.925 194.125 65.625 193.425 66.275C189.325 69.925 183.75 71.75 176.7 71.75ZM186.9 49.775C187.8 49.775 188.45 49.6 188.85 49.25C189.25 48.9 189.45 48.275 189.45 47.375C189.45 44.975 188.225 43.025 185.775 41.525C183.375 39.975 180.225 39.2 176.325 39.2C172.275 39.2 169.05 40.15 166.65 42.05C164.3 43.95 163.125 46.525 163.125 49.775H186.9ZM220.737 71.75C216.887 71.75 213.462 71.1 210.462 69.8C207.462 68.45 205.087 66.65 203.337 64.4C202.837 63.75 202.587 63.1 202.587 62.45C202.587 61.35 203.112 60.525 204.162 59.975C204.612 59.725 205.087 59.6 205.587 59.6C206.437 59.6 207.312 60.05 208.212 60.95C209.862 62.7 211.687 63.975 213.687 64.775C215.687 65.575 217.987 65.975 220.587 65.975C222.987 65.975 224.937 65.6 226.437 64.85C227.987 64.05 228.762 62.975 228.762 61.625C228.762 60.625 228.462 59.8 227.862 59.15C227.312 58.5 226.337 57.875 224.937 57.275C223.537 56.675 221.337 55.875 218.337 54.875C213.287 53.275 209.712 51.625 207.612 49.925C205.562 48.225 204.537 46 204.537 43.25C204.537 40.3 205.812 37.95 208.362 36.2C210.962 34.4 214.462 33.5 218.862 33.5C222.112 33.5 225.112 34.05 227.862 35.15C230.662 36.2 232.737 37.65 234.087 39.5C234.537 40.1 234.762 40.725 234.762 41.375C234.762 42.225 234.312 42.95 233.412 43.55C232.762 43.95 232.112 44.15 231.462 44.15C230.462 44.15 229.512 43.7 228.612 42.8C227.412 41.6 226.012 40.725 224.412 40.175C222.862 39.575 220.987 39.275 218.787 39.275C216.437 39.275 214.637 39.625 213.387 40.325C212.187 41.025 211.587 42.025 211.587 43.325C211.587 44.325 211.862 45.125 212.412 45.725C212.962 46.325 213.912 46.9 215.262 47.45C216.612 48 218.862 48.775 222.012 49.775C225.512 50.875 228.237 51.975 230.187 53.075C232.187 54.175 233.612 55.4 234.462 56.75C235.312 58.1 235.737 59.725 235.737 61.625C235.737 64.675 234.362 67.125 231.612 68.975C228.912 70.825 225.287 71.75 220.737 71.75ZM246.938 71.75C245.838 71.75 244.988 71.45 244.388 70.85C243.788 70.2 243.488 69.325 243.488 68.225V37.025C243.488 35.925 243.788 35.075 244.388 34.475C244.988 33.825 245.838 33.5 246.938 33.5C248.038 33.5 248.888 33.825 249.488 34.475C250.138 35.075 250.463 35.925 250.463 37.025V40.475C251.713 38.275 253.338 36.575 255.338 35.375C257.338 34.125 259.463 33.5 261.713 33.5C264.013 33.5 266.038 34.125 267.788 35.375C269.538 36.575 270.838 38.275 271.688 40.475C275.338 35.825 279.463 33.5 284.063 33.5C288.013 33.5 291.013 34.775 293.063 37.325C295.163 39.875 296.213 43.575 296.213 48.425V68.225C296.213 69.325 295.888 70.2 295.238 70.85C294.638 71.45 293.813 71.75 292.763 71.75C291.663 71.75 290.813 71.45 290.213 70.85C289.613 70.25 289.313 69.375 289.313 68.225V48.125C289.313 45.175 288.813 42.975 287.813 41.525C286.813 40.025 285.163 39.275 282.863 39.275C278.863 39.275 275.838 41.55 273.788 46.1V68.225C273.788 69.325 273.463 70.2 272.813 70.85C272.213 71.45 271.363 71.75 270.263 71.75C269.163 71.75 268.313 71.45 267.713 70.85C267.163 70.25 266.888 69.375 266.888 68.225V49.4C266.888 46.1 266.338 43.6 265.238 41.9C264.138 40.15 262.538 39.275 260.438 39.275C257.488 39.275 255.088 40.45 253.238 42.8C251.388 45.1 250.463 48.1 250.463 51.8V68.225C250.463 69.325 250.138 70.2 249.488 70.85C248.888 71.45 248.038 71.75 246.938 71.75ZM320.687 71.75C315.687 71.75 311.787 70.325 308.987 67.475C306.187 64.575 304.787 60.6 304.787 55.55V37.025C304.787 35.925 305.087 35.075 305.687 34.475C306.337 33.825 307.187 33.5 308.237 33.5C309.337 33.5 310.187 33.825 310.787 34.475C311.387 35.075 311.687 35.925 311.687 37.025V55.55C311.687 58.85 312.562 61.425 314.312 63.275C316.112 65.075 318.612 65.975 321.812 65.975C325.712 65.975 328.837 64.725 331.187 62.225C333.587 59.725 334.787 56.4 334.787 52.25V37.025C334.787 35.925 335.087 35.075 335.687 34.475C336.337 33.825 337.212 33.5 338.312 33.5C339.412 33.5 340.237 33.8 340.787 34.4C341.387 35 341.687 35.875 341.687 37.025V68.225C341.687 69.375 341.387 70.25 340.787 70.85C340.237 71.45 339.412 71.75 338.312 71.75C337.212 71.75 336.362 71.45 335.762 70.85C335.162 70.2 334.862 69.325 334.862 68.225V64.55C331.112 69.35 326.387 71.75 320.687 71.75ZM367.734 71.75C363.884 71.75 360.459 71.1 357.459 69.8C354.459 68.45 352.084 66.65 350.334 64.4C349.834 63.75 349.584 63.1 349.584 62.45C349.584 61.35 350.109 60.525 351.159 59.975C351.609 59.725 352.084 59.6 352.584 59.6C353.434 59.6 354.309 60.05 355.209 60.95C356.859 62.7 358.684 63.975 360.684 64.775C362.684 65.575 364.984 65.975 367.584 65.975C369.984 65.975 371.934 65.6 373.434 64.85C374.984 64.05 375.759 62.975 375.759 61.625C375.759 60.625 375.459 59.8 374.859 59.15C374.309 58.5 373.334 57.875 371.934 57.275C370.534 56.675 368.334 55.875 365.334 54.875C360.284 53.275 356.709 51.625 354.609 49.925C352.559 48.225 351.534 46 351.534 43.25C351.534 40.3 352.809 37.95 355.359 36.2C357.959 34.4 361.459 33.5 365.859 33.5C369.109 33.5 372.109 34.05 374.859 35.15C377.659 36.2 379.734 37.65 381.084 39.5C381.534 40.1 381.759 40.725 381.759 41.375C381.759 42.225 381.309 42.95 380.409 43.55C379.759 43.95 379.109 44.15 378.459 44.15C377.459 44.15 376.509 43.7 375.609 42.8C374.409 41.6 373.009 40.725 371.409 40.175C369.859 39.575 367.984 39.275 365.784 39.275C363.434 39.275 361.634 39.625 360.384 40.325C359.184 41.025 358.584 42.025 358.584 43.325C358.584 44.325 358.859 45.125 359.409 45.725C359.959 46.325 360.909 46.9 362.259 47.45C363.609 48 365.859 48.775 369.009 49.775C372.509 50.875 375.234 51.975 377.184 53.075C379.184 54.175 380.609 55.4 381.459 56.75C382.309 58.1 382.734 59.725 382.734 61.625C382.734 64.675 381.359 67.125 378.609 68.975C375.909 70.825 372.284 71.75 367.734 71.75ZM394.85 71.6C394.01 71.6 393.33 71.36 392.81 70.88C392.33 70.36 392.09 69.66 392.09 68.78V31.22C392.09 30.34 392.33 29.66 392.81 29.18C393.33 28.66 394.01 28.4 394.85 28.4C395.73 28.4 396.43 28.66 396.95 29.18C397.47 29.66 397.73 30.34 397.73 31.22V68.78C397.73 69.66 397.47 70.36 396.95 70.88C396.43 71.36 395.73 71.6 394.85 71.6ZM427.523 71.75C423.373 71.75 419.748 70.975 416.648 69.425C413.548 67.875 411.173 65.65 409.523 62.75C407.873 59.85 407.048 56.45 407.048 52.55C407.048 48.7 407.873 45.35 409.523 42.5C411.173 39.6 413.548 37.375 416.648 35.825C419.748 34.275 423.373 33.5 427.523 33.5C431.223 33.5 434.473 34.05 437.273 35.15C440.073 36.25 442.248 37.825 443.798 39.875C444.298 40.425 444.548 41.075 444.548 41.825C444.548 42.725 444.073 43.525 443.123 44.225C442.723 44.575 442.173 44.75 441.473 44.75C440.373 44.75 439.373 44.3 438.473 43.4C436.023 40.65 432.373 39.275 427.523 39.275C423.223 39.275 419.898 40.425 417.548 42.725C415.198 45.025 414.023 48.3 414.023 52.55C414.023 56.8 415.198 60.1 417.548 62.45C419.948 64.8 423.273 65.975 427.523 65.975C429.873 65.975 432.048 65.625 434.048 64.925C436.048 64.175 437.748 63.1 439.148 61.7C440.198 60.65 441.198 60.125 442.148 60.125C442.748 60.125 443.348 60.35 443.948 60.8C444.748 61.55 445.148 62.375 445.148 63.275C445.148 64.025 444.873 64.675 444.323 65.225C441.923 67.475 439.373 69.125 436.673 70.175C433.973 71.225 430.923 71.75 427.523 71.75Z" fill="white"/>
<path d="M149.616 1.00293L149.652 0.11792H155.139C155.422 9.53442 156 18.7739 156.873 27.8364L151.669 27.978C151.221 24.2256 150.973 22.0072 150.926 21.3228C150.902 20.6383 150.82 19.9067 150.678 19.1279C150.537 18.3255 150.442 17.7945 150.395 17.5349C150.371 17.2753 150.218 16.9213 149.935 16.4729C149.675 16.0009 149.463 15.7177 149.298 15.6233C149.156 15.5053 148.837 15.2811 148.342 14.9507C147.846 14.6203 147.41 14.3843 147.032 14.2427C146.23 13.9831 144.755 13.2987 142.607 12.1895C140.459 11.0802 137.108 10.0772 132.553 9.18042C128.022 8.26001 123.396 7.7998 118.676 7.7998C113.956 7.7998 109.46 8.49601 105.189 9.88843C100.917 11.2808 97.1528 13.2397 93.896 15.7649C90.6392 18.2665 87.8189 21.2048 85.4353 24.5796C80.5736 31.4237 78.1428 39.318 78.1428 48.2625C78.1428 55.8853 80.0308 63.2368 83.8069 70.3169C87.4885 77.2318 92.6452 82.8722 99.2769 87.2383C106.097 91.6987 113.697 93.929 122.075 93.929C130.146 93.929 138.076 91.3329 145.864 86.1409C150.159 83.2852 152.33 80.9016 152.377 78.99L152.838 66.8123H157.9L157.05 87.9817C148.483 93.9762 138.571 97.8584 127.314 99.6284C124.317 100.1 121.367 100.336 118.464 100.336C101.778 100.336 88.8101 96.0176 79.5588 87.3799C70.4019 78.8366 65.8235 67.2017 65.8235 52.4751C65.8235 38.6925 70.2721 27.0812 79.1694 17.6411C84.1255 12.3783 90.3324 8.21281 97.79 5.14478C104.469 2.38354 110.77 1.00293 116.694 1.00293C122.641 1.00293 127.55 1.23893 131.42 1.71094C135.314 2.18294 138.17 2.70215 139.987 3.26855C141.805 3.81136 143.386 4.31877 144.731 4.79077C146.076 5.26278 146.985 5.49878 147.457 5.49878C147.929 5.49878 148.306 5.46338 148.59 5.39258C148.873 5.29818 149.097 5.06217 149.262 4.68457C149.498 4.14176 149.616 2.91455 149.616 1.00293Z" fill="white"/>
<line opacity="0.76" y1="53.5" x2="509" y2="53.5" stroke="url(#paint0_linear_0_1)"/>
<line opacity="0.76" y1="72.5" x2="509" y2="72.5" stroke="url(#paint1_linear_0_1)"/>
<line opacity="0.76" y1="-0.5" x2="509.001" y2="-0.5" transform="matrix(0.999998 0.00198681 -0.0027221 0.999996 0 102)" stroke="url(#paint2_linear_0_1)"/>
<line opacity="0.76" y1="34.5" x2="509" y2="34.5" stroke="url(#paint3_linear_0_1)"/>
<line opacity="0.76" y1="2.5" x2="509" y2="2.5" stroke="url(#paint4_linear_0_1)"/>
<defs>
<linearGradient id="paint0_linear_0_1" x1="0" y1="54.5" x2="509" y2="54.5" gradientUnits="userSpaceOnUse">
<stop stop-color="#999999" stop-opacity="0.3"/>
<stop offset="0.2" stop-color="white"/>
<stop offset="0.8" stop-color="white"/>
<stop offset="1" stop-color="#999999" stop-opacity="0.3"/>
</linearGradient>
<linearGradient id="paint1_linear_0_1" x1="0" y1="73.5" x2="509" y2="73.5" gradientUnits="userSpaceOnUse">
<stop stop-color="#999999" stop-opacity="0.3"/>
<stop offset="0.2" stop-color="white"/>
<stop offset="0.8" stop-color="white"/>
<stop offset="1" stop-color="#999999" stop-opacity="0.3"/>
</linearGradient>
<linearGradient id="paint2_linear_0_1" x1="0" y1="0.5" x2="509.001" y2="0.5" gradientUnits="userSpaceOnUse">
<stop stop-color="#999999" stop-opacity="0.3"/>
<stop offset="0.2" stop-color="white"/>
<stop offset="0.8" stop-color="white"/>
<stop offset="1" stop-color="#999999" stop-opacity="0.3"/>
</linearGradient>
<linearGradient id="paint3_linear_0_1" x1="0" y1="35.5" x2="509" y2="35.5" gradientUnits="userSpaceOnUse">
<stop stop-color="#999999" stop-opacity="0.3"/>
<stop offset="0.2" stop-color="white"/>
<stop offset="0.8" stop-color="white"/>
<stop offset="1" stop-color="#999999" stop-opacity="0.3"/>
</linearGradient>
<linearGradient id="paint4_linear_0_1" x1="0" y1="3.5" x2="509" y2="3.5" gradientUnits="userSpaceOnUse">
<stop stop-color="#999999" stop-opacity="0.3"/>
<stop offset="0.2" stop-color="white"/>
<stop offset="0.8" stop-color="white"/>
<stop offset="1" stop-color="#999999" stop-opacity="0.3"/>
</linearGradient>
</defs>
</svg>
