<svg width="16" height="47" viewBox="0 0 16 47" fill="none" xmlns="http://www.w3.org/2000/svg">
<g opacity="0.86">
<ellipse cx="8" cy="21.5" rx="8" ry="16.5" fill="white"/>
<ellipse cx="8" cy="21.5" rx="8" ry="16.5" fill="white"/>
</g>
<g opacity="0.86">
<ellipse cx="8" cy="13.5" rx="3" ry="5.5" fill="white"/>
<ellipse cx="8" cy="13.5" rx="3" ry="5.5" fill="#C0BBBB"/>
</g>
<path opacity="0.73" d="M6.85884 46.693C7.24198 47.0912 7.87502 47.1037 8.27278 46.721L14.7546 40.4839C15.1523 40.1011 15.1642 39.4681 14.781 39.0699C14.3979 38.6717 13.7648 38.6592 13.3671 39.0419L7.6055 44.586L2.05559 38.8184C1.67245 38.4202 1.03941 38.4077 0.641651 38.7905C0.243896 39.1732 0.232049 39.8063 0.61519 40.2044L6.85884 46.693ZM7.42134 0.980241L6.57923 45.9802L8.57884 46.0198L9.42095 1.01976L7.42134 0.980241Z" fill="white"/>
</svg>
